<svg width="42" height="43" viewBox="0 0 42 43" fill="none" xmlns="http://www.w3.org/2000/svg">
<g filter="url(#filter0_d_211_2514)">
<rect x="4.09235" y="0.919434" width="33.4113" height="33.4113" rx="5.56856" fill="#F5F7FA" shape-rendering="crispEdges"/>
<g clip-path="url(#clip0_211_2514)">
<path fill-rule="evenodd" clip-rule="evenodd" d="M11.1213 10.6376L4.17053 17.5185C5.56082 18.8948 7.14901 20.0547 8.88058 20.9622C9.3592 22.219 10.1094 23.3977 11.1312 24.4092C14.9755 28.2148 21.2084 28.2148 25.0526 24.4092C26.0744 23.3977 26.8247 22.219 27.3033 20.9621C29.0348 20.0547 30.6231 18.8948 32.0133 17.5185L25.0681 10.6432C25.063 10.638 25.0578 10.6329 25.0526 10.6277C21.2084 6.82209 14.9755 6.82209 11.1312 10.6277C11.1279 10.631 11.1246 10.6343 11.1213 10.6376ZM24.3875 22.2036C22.362 22.8804 20.2356 23.2269 18.0919 23.2269C15.9482 23.2269 13.822 22.8804 11.7964 22.2036C12.0159 22.4919 12.2582 22.7685 12.5234 23.0311C15.5988 26.0756 20.585 26.0756 23.6605 23.0311C23.9257 22.7685 24.1681 22.4919 24.3875 22.2036ZM12.6661 11.8681C13.1884 12.2096 13.7437 12.5019 14.3248 12.7402C15.5191 13.2299 16.7992 13.482 18.0919 13.482C19.3847 13.482 20.6647 13.2299 21.8591 12.7402C22.4401 12.5019 22.9955 12.2096 23.5178 11.868C20.4807 9.0073 15.7032 9.00731 12.6661 11.8681Z" fill="#3B4158"/>
</g>
</g>
<defs>
<filter id="filter0_d_211_2514" x="0.0923462" y="0.919434" width="41.4113" height="41.4113" filterUnits="userSpaceOnUse" color-interpolation-filters="sRGB">
<feFlood flood-opacity="0" result="BackgroundImageFix"/>
<feColorMatrix in="SourceAlpha" type="matrix" values="0 0 0 0 0 0 0 0 0 0 0 0 0 0 0 0 0 0 127 0" result="hardAlpha"/>
<feOffset dy="4"/>
<feGaussianBlur stdDeviation="2"/>
<feComposite in2="hardAlpha" operator="out"/>
<feColorMatrix type="matrix" values="0 0 0 0 0 0 0 0 0 0 0 0 0 0 0 0 0 0 0.25 0"/>
<feBlend mode="normal" in2="BackgroundImageFix" result="effect1_dropShadow_211_2514"/>
<feBlend mode="normal" in="SourceGraphic" in2="effect1_dropShadow_211_2514" result="shape"/>
</filter>
<clipPath id="clip0_211_2514">
<rect width="27.8428" height="19.4899" fill="white" transform="translate(4.17053 7.7735)"/>
</clipPath>
</defs>
</svg>
