<svg width="47" height="30" viewBox="0 0 47 30" fill="none" xmlns="http://www.w3.org/2000/svg">
<g clip-path="url(#clip0_211_2053)" filter="url(#filter0_d_211_2053)">
<path d="M42.5802 7.95001C42.5842 7.92099 42.5842 7.89165 42.5802 7.86262C42.584 7.83897 42.584 7.81485 42.5802 7.79115L42.2966 5.74982C42.2557 5.5056 42.1463 5.27734 41.9807 5.09056L41.932 5.03496L41.8429 4.94759L36.9331 0.801395L37.0709 0.936435C36.9582 0.804263 36.8167 0.698543 36.6569 0.627062C36.4971 0.555582 36.3229 0.520157 36.1473 0.523401H34.6565C34.4141 0.518692 34.1772 0.594252 33.984 0.737862C33.7812 0.595117 33.5369 0.519944 33.2872 0.523401H31.7965C31.601 0.520291 31.4081 0.567863 31.2374 0.661313C31.0666 0.754764 30.9241 0.890775 30.8243 1.05557C30.6703 1.29095 30.6124 1.57454 30.6622 1.84986L30.8486 3.13661C30.7251 3.068 30.5854 3.0324 30.4435 3.03336H23.2246C22.9656 3.03495 22.7126 3.10938 22.4954 3.24781C22.2854 3.37666 22.1169 3.56117 22.0093 3.77998L21.4503 3.31135C21.2302 3.11177 20.9398 3.00359 20.6401 3.00953H9.31354C9.05362 3.01417 8.79947 3.08536 8.57628 3.21604C8.27094 3.39125 8.04716 3.67614 7.95241 4.01033L4.35514 15.8055C4.28793 15.9999 4.28132 16.2095 4.33616 16.4076C4.39099 16.6056 4.50479 16.7832 4.66302 16.9176C4.70425 16.9518 4.74754 16.9837 4.79266 17.0128C4.79266 17.0128 4.71973 16.9652 4.67922 16.9255L9.58903 21.0796C9.79672 21.2671 10.0683 21.3719 10.3506 21.3735H21.7663C22.027 21.3669 22.2813 21.2929 22.5035 21.159C22.6292 21.0917 22.7417 21.0029 22.8357 20.8969L22.8762 20.8413L22.941 20.7619L22.9896 20.6745L23.5244 21.1273C23.7291 21.3073 23.9948 21.4063 24.2698 21.4053H35.7097C35.9701 21.3968 36.224 21.323 36.447 21.1908C36.5699 21.1193 36.6817 21.0311 36.7792 20.9287L36.8197 20.8731L36.8845 20.7937C36.9189 20.7434 36.9488 20.6903 36.9736 20.6348C37.0001 20.5866 37.0218 20.5361 37.0384 20.4839L40.3197 9.71335V9.61802C40.3238 9.58106 40.3238 9.54378 40.3197 9.50682V9.43535C40.3237 9.41165 40.3237 9.38753 40.3197 9.36383C40.3234 9.31361 40.3234 9.26318 40.3197 9.21291H41.373C41.4646 9.22116 41.5568 9.22116 41.6484 9.21291H41.7214C41.7807 9.19557 41.8378 9.17156 41.8915 9.14144H41.9726L42.1184 9.03024L42.1832 8.98258L42.2966 8.83959V8.79198L42.3776 8.65692C42.3731 8.63066 42.3731 8.60378 42.3776 8.57752C42.3733 8.56462 42.3733 8.55068 42.3776 8.53779C42.3949 8.49122 42.4084 8.4434 42.4182 8.3948C42.4144 8.37914 42.4144 8.3628 42.4182 8.34714C42.4142 8.32349 42.4142 8.29932 42.4182 8.27567C42.4182 8.27567 42.5802 7.96588 42.5802 7.95001Z" fill="black"/>
<path d="M20.9723 3.91505C21.0153 3.95318 21.0453 4.00332 21.0584 4.05871C21.0714 4.1141 21.0668 4.17207 21.0452 4.22482L17.4561 16.0121C17.4109 16.1408 17.3184 16.2484 17.1968 16.3139C17.0978 16.3788 16.9833 16.4171 16.8646 16.4251H5.45705C5.35963 16.4205 5.26733 16.381 5.19778 16.3139C5.15641 16.2764 5.12737 16.2276 5.11438 16.1739C5.10139 16.1201 5.10505 16.0638 5.12487 16.0121L8.72214 4.22482C8.76358 4.09451 8.85314 3.98404 8.97329 3.91505C9.07388 3.85482 9.18787 3.81939 9.30548 3.81179H20.713C20.8097 3.8127 20.9024 3.84962 20.9723 3.91505ZM15.0173 13.6372L17.1644 6.59974H11.1527L9.0138 13.6372H15.0173ZM31.8613 4.03419C31.9002 4.07853 31.9489 4.1137 32.0036 4.13707C32.0583 4.16045 32.1177 4.17144 32.1773 4.16922H33.66C33.7164 4.16976 33.772 4.15619 33.8217 4.12978C33.8713 4.10338 33.9132 4.06501 33.9435 4.0183C33.9698 3.98182 33.9885 3.94052 33.9982 3.89686C34.0079 3.8532 34.0086 3.80807 34.0002 3.76414L33.7086 1.66721C33.6808 1.57016 33.6309 1.48054 33.5628 1.40509C33.5238 1.36075 33.4752 1.32558 33.4205 1.30221C33.3658 1.27883 33.3064 1.26785 33.2468 1.27006H31.7641C31.7076 1.26953 31.652 1.2831 31.6024 1.30951C31.5528 1.33591 31.5108 1.37428 31.4805 1.42098C31.4238 1.53218 31.3995 1.60367 31.4238 1.66721L31.7236 3.76414C31.739 3.86624 31.7872 3.96085 31.8613 4.03419ZM36.5686 1.65132C36.5408 1.55427 36.4909 1.46465 36.4227 1.38921C36.3854 1.34503 36.3382 1.30987 36.2848 1.28645C36.2315 1.26304 36.1733 1.25199 36.1149 1.25418H34.6241C34.5686 1.25263 34.5136 1.26584 34.4651 1.2924C34.4166 1.31897 34.3764 1.35791 34.3486 1.40509C34.2947 1.47556 34.2714 1.56407 34.2838 1.65132L34.5836 3.74825C34.6024 3.84927 34.6501 3.94295 34.7213 4.0183C34.7609 4.06178 34.8097 4.09635 34.8643 4.11966C34.9188 4.14296 34.9778 4.15445 35.0373 4.15333H36.5281C36.5835 4.15405 36.638 4.14049 36.6863 4.114C36.7347 4.08751 36.7751 4.04904 36.8035 4.00242C36.8317 3.96689 36.8514 3.9256 36.8612 3.88162C36.8711 3.83765 36.8707 3.79208 36.8602 3.74825L36.5686 1.65132ZM30.5569 4.82848L30.411 3.7959H23.2246C23.1118 3.802 23.0026 3.83766 22.9086 3.89916C22.849 3.93106 22.797 3.97528 22.7565 4.02876C22.7159 4.08224 22.6877 4.14371 22.6737 4.20894L22.0742 6.17876C22.0502 6.22799 22.042 6.28322 22.0507 6.3371C22.0594 6.39097 22.0845 6.44099 22.1228 6.48061C22.1911 6.54357 22.2803 6.58027 22.3739 6.58387H31.1079L28.9608 13.6213H20.2512C20.1389 13.6238 20.0295 13.6568 19.9353 13.7166C19.8207 13.7879 19.737 13.8982 19.7003 14.0263L19.0926 15.9962C19.0728 16.0467 19.0676 16.1017 19.0776 16.1549C19.0876 16.2082 19.1124 16.2577 19.1493 16.298C19.2155 16.3652 19.3054 16.405 19.4005 16.4092H30.8405C30.9588 16.3992 31.0728 16.3611 31.1726 16.298C31.2923 16.2321 31.382 16.1243 31.4238 15.9962L34.7132 5.22563H31.0106C30.9519 5.22676 30.8935 5.21607 30.8392 5.19421C30.7848 5.17235 30.7357 5.13978 30.6947 5.09853C30.6277 5.02651 30.5803 4.93909 30.5569 4.84437V4.82848Z" fill="white"/>
</g>
<defs>
<filter id="filter0_d_211_2053" x="0.299377" y="0.523193" width="46.2838" height="28.8821" filterUnits="userSpaceOnUse" color-interpolation-filters="sRGB">
<feFlood flood-opacity="0" result="BackgroundImageFix"/>
<feColorMatrix in="SourceAlpha" type="matrix" values="0 0 0 0 0 0 0 0 0 0 0 0 0 0 0 0 0 0 127 0" result="hardAlpha"/>
<feOffset dy="4"/>
<feGaussianBlur stdDeviation="2"/>
<feComposite in2="hardAlpha" operator="out"/>
<feColorMatrix type="matrix" values="0 0 0 0 0 0 0 0 0 0 0 0 0 0 0 0 0 0 0.25 0"/>
<feBlend mode="normal" in2="BackgroundImageFix" result="effect1_dropShadow_211_2053"/>
<feBlend mode="normal" in="SourceGraphic" in2="effect1_dropShadow_211_2053" result="shape"/>
</filter>
<clipPath id="clip0_211_2053">
<rect width="38.2838" height="20.8821" fill="white" transform="translate(4.29938 0.523193)"/>
</clipPath>
</defs>
</svg>
